<svg width="18" height="26" viewBox="0 0 18 26" fill="none" xmlns="http://www.w3.org/2000/svg">
<path d="M17.512 9.56803C17.196 8.8067 16.488 8.33337 15.664 8.33337L11.8547 8.42671L14.1427 3.12537C14.4107 2.50537 14.348 1.79737 13.9773 1.2347C13.6067 0.6707 12.9813 0.333374 12.3067 0.333374H6.33335C5.21602 0.333374 4.28936 1.03204 3.9267 2.12404L0.437358 11.0334C0.230691 11.6507 0.330683 12.3067 0.712016 12.8347C1.09335 13.3627 1.68404 13.6667 2.33604 13.6667L6.10134 13.5787L2.25466 24.784C2.15466 25.0774 2.26934 25.4014 2.532 25.5654C2.64134 25.6334 2.76269 25.6667 2.88536 25.6667C3.05736 25.6667 3.22803 25.6 3.35736 25.472L17.08 11.748C17.6614 11.1654 17.8267 10.3294 17.512 9.56803Z" fill="url(#paint0_linear_0_3845)"/>
<defs>
<linearGradient id="paint0_linear_0_3845" x1="0.331909" y1="20.493" x2="7.17551" y2="20.493" gradientUnits="userSpaceOnUse">
<stop stop-color="#0CD890"/>
<stop offset="1" stop-color="#01F0FD"/>
</linearGradient>
</defs>
</svg>
