<svg width="169" height="60" viewBox="0 0 169 60" fill="none" xmlns="http://www.w3.org/2000/svg">
<g clip-path="url(#clip0_0_197)">
<path d="M75.6707 30.5131C75.6707 36.0653 71.3149 40.1566 65.9693 40.1566C60.6237 40.1566 56.2679 36.0653 56.2679 30.5131C56.2679 24.9218 60.6237 20.8696 65.9693 20.8696C71.3149 20.8696 75.6707 24.9218 75.6707 30.5131ZM71.4239 30.5131C71.4239 27.0435 68.8993 24.6696 65.9693 24.6696C63.0393 24.6696 60.5147 27.0435 60.5147 30.5131C60.5147 33.9479 63.0393 36.3566 65.9693 36.3566C68.8993 36.3566 71.4239 33.9435 71.4239 30.5131Z" fill="#A0A8C4"/>
<path d="M96.5995 30.5131C96.5995 36.0653 92.2437 40.1566 86.8981 40.1566C81.5525 40.1566 77.1967 36.0653 77.1967 30.5131C77.1967 24.9262 81.5525 20.8696 86.8981 20.8696C92.2437 20.8696 96.5995 24.9218 96.5995 30.5131ZM92.3527 30.5131C92.3527 27.0435 89.8281 24.6696 86.8981 24.6696C83.9681 24.6696 81.4435 27.0435 81.4435 30.5131C81.4435 33.9479 83.9681 36.3566 86.8981 36.3566C89.8281 36.3566 92.3527 33.9435 92.3527 30.5131Z" fill="#A0A8C4"/>
<path d="M116.656 21.4522V38.7653C116.656 45.887 112.444 48.7957 107.465 48.7957C102.778 48.7957 99.9568 45.6696 98.8929 43.1131L102.59 41.5783C103.249 43.1479 104.862 45.0001 107.461 45.0001C110.648 45.0001 112.623 43.0392 112.623 39.3479V37.9609H112.475C111.524 39.1305 109.693 40.1522 107.382 40.1522C102.547 40.1522 98.1168 35.9522 98.1168 30.5479C98.1168 25.1044 102.547 20.8696 107.382 20.8696C109.689 20.8696 111.52 21.8914 112.475 23.0262H112.623V21.4566H116.656V21.4522ZM112.924 30.5479C112.924 27.1522 110.652 24.6696 107.761 24.6696C104.831 24.6696 102.377 27.1522 102.377 30.5479C102.377 33.9088 104.831 36.3566 107.761 36.3566C110.652 36.3566 112.924 33.9088 112.924 30.5479Z" fill="#A0A8C4"/>
<path d="M123.305 11.3042V39.5651H119.163V11.3042H123.305Z" fill="#A0A8C4"/>
<path d="M139.447 33.687L142.743 35.8783C141.679 37.4478 139.115 40.1522 134.685 40.1522C129.192 40.1522 125.089 35.9174 125.089 30.5087C125.089 24.7739 129.227 20.8652 134.21 20.8652C139.229 20.8652 141.684 24.8478 142.486 27L142.926 28.0957L129.998 33.4348C130.988 35.3696 132.527 36.3565 134.685 36.3565C136.848 36.3565 138.348 35.2957 139.447 33.687ZM129.301 30.2174L137.943 26.6391C137.467 25.4348 136.037 24.5957 134.354 24.5957C132.196 24.5957 129.192 26.4957 129.301 30.2174Z" fill="#A0A8C4"/>
<path d="M40.5888 28.0046V23.9133H54.4149C54.55 24.6263 54.6198 25.4698 54.6198 26.3829C54.6198 29.4524 53.7783 33.2481 51.0662 35.9524C48.4284 38.6915 45.0579 40.1524 40.5931 40.1524C32.3175 40.1524 25.3587 33.4307 25.3587 25.1785C25.3587 16.9263 32.3175 10.2046 40.5931 10.2046C45.1713 10.2046 48.4327 11.9959 50.8831 14.3307L47.988 17.2176C46.2308 15.5742 43.8502 14.2959 40.5888 14.2959C34.5456 14.2959 29.8192 19.1524 29.8192 25.1785C29.8192 31.2046 34.5456 36.0611 40.5888 36.0611C44.5086 36.0611 46.741 34.4915 48.1711 33.0655C49.3309 31.9089 50.0939 30.2568 50.3948 28.0002L40.5888 28.0046Z" fill="#A0A8C4"/>
</g>
<defs>
<clipPath id="clip0_0_197">
<rect width="118.596" height="40" fill="white" transform="translate(25.2018 10)"/>
</clipPath>
</defs>
</svg>
