<svg width="50" height="56" viewBox="0 0 50 56" fill="none" xmlns="http://www.w3.org/2000/svg">
<path d="M15.0465 34.7422C11.2047 16.1528 14.8439 3.95654 14.8439 3.95654C14.8439 3.95654 13.8705 11.3816 21.5269 23.3507C21.4306 38.1888 24.4151 45.9281 24.4151 45.9281L25.0278 45.4858L24.4151 46.0079C24.4151 46.0079 19.8741 42.3824 15.0465 34.7422Z" fill="#0A5959"/>
<path d="M33.1437 32.1103C34.9794 33.9206 36.694 35.1727 37.9317 35.7697C37.9243 35.7673 37.9169 35.7624 37.9095 35.7576C37.9095 35.7576 39.3005 36.2458 39.5451 35.9195C41.2399 34.1648 41.6549 30.8921 40.5259 24.7408C34.0628 21.1298 33.2475 15.5029 33.2475 15.5029C33.2475 15.5029 32.0838 23.3172 33.1437 32.1079V32.1103Z" fill="#0A5959"/>
<path d="M14.8438 3.95683C14.8438 3.95683 9.52703 21.7703 18.525 47.1466C18.7696 47.879 18.525 48.6911 17.8703 49.1793L8.38067 55.6859C7.48137 56.3361 6.17195 55.9301 5.7643 54.8714C3.22698 48.1231 -3.72531 25.7535 3.30851 1.27152C3.6371 0.295038 4.69946 -0.272962 5.68277 0.133097L14.8438 3.95683Z" fill="url(#paint0_linear_0_2979)"/>
<path d="M33.0028 39.7454L24.415 45.9281C24.415 45.9281 19.8345 34.0533 22.2063 11.5218C22.3693 10.2214 23.7603 9.56885 24.9067 10.2214L33.2499 15.5075C33.2499 15.5075 31.6144 26.488 33.9861 37.0625C34.2307 38.1187 33.8231 39.1774 33.0053 39.7478L33.0028 39.7454Z" fill="url(#paint1_linear_0_2979)"/>
<path d="M48.8716 25.9975L40.936 20.8735C40.4444 20.5472 39.7081 21.0354 39.8736 21.6058C41.7563 29.8213 41.5092 33.8867 39.5475 35.9218C39.3029 36.2481 37.912 35.7599 37.912 35.7599C39.2214 36.4101 39.5475 36.0862 39.5475 36.0862C40.8569 35.1097 45.7636 31.6123 48.8716 29.4974C50.0995 28.6031 50.0995 26.8121 48.8716 26V25.9975Z" fill="#4BDFFF"/>
<defs>
<linearGradient id="paint0_linear_0_2979" x1="9.43374" y1="0.000488281" x2="9.43374" y2="55.9991" gradientUnits="userSpaceOnUse">
<stop stop-color="#0BD895"/>
<stop offset="1" stop-color="#4BDFFF"/>
</linearGradient>
<linearGradient id="paint1_linear_0_2979" x1="27.7907" y1="9.96533" x2="27.7907" y2="45.9281" gradientUnits="userSpaceOnUse">
<stop stop-color="#0BD895"/>
<stop offset="1" stop-color="#4BDFFF"/>
</linearGradient>
</defs>
</svg>
