<svg width="26" height="26" viewBox="0 0 26 26" fill="none" xmlns="http://www.w3.org/2000/svg">
<path d="M6.61073 23.4747C5.55606 24.5294 1.88404 25.4668 1.1587 25.6441C1.10537 25.6574 1.05339 25.6628 1.00005 25.6628C0.82272 25.6628 0.650727 25.5921 0.524061 25.4627C0.358727 25.2947 0.296051 25.0521 0.356051 24.8241C0.557385 24.0681 1.61206 20.2401 2.66139 19.1908C3.25206 18.6001 4.01873 18.2961 4.7894 18.3041C5.53473 18.3214 6.25072 18.6374 6.80405 19.1908C7.93205 20.3201 7.8454 22.2414 6.61073 23.4747ZM19.9441 16.6388L19.6001 18.7334C19.2001 21.2534 17.4667 23.4001 15.0934 24.3468L11.9201 25.6134C11.8401 25.6534 11.7467 25.6667 11.6667 25.6667C11.5201 25.6667 11.36 25.6134 11.24 25.5068C11.0534 25.3601 10.9601 25.1067 11.0134 24.8667L11.8974 20.4187C11.7681 20.4441 11.6454 20.4788 11.5134 20.5014C11.3507 20.5294 11.1867 20.5428 11.0241 20.5428C10.2454 20.5428 9.48004 20.2267 8.90671 19.6547L6.34405 17.0907C5.65071 16.3974 5.3347 15.4241 5.49737 14.4841C5.52003 14.3548 5.55471 14.2334 5.57871 14.1054L1.1587 14.9841C1.1187 14.9974 1.0654 14.9974 1.0254 14.9974C0.825404 14.9974 0.63873 14.9174 0.51873 14.7574C0.35873 14.5707 0.318708 14.3041 0.412041 14.0774L1.69207 10.8907C2.6254 8.53075 4.77205 6.79742 7.29205 6.39742L9.36004 6.05208C12.7747 2.13608 18.1374 -0.00390625 24.9974 -0.00390625C25.5494 -0.00390625 25.9974 0.444094 25.9974 0.996094C26 7.86143 23.8614 13.2241 19.9441 16.6388ZM22.292 9.92676C22.0867 6.58009 19.4187 3.91341 16.072 3.70675C12.2067 5.37208 8.54807 8.60141 7.46807 14.8267C7.4174 15.1214 7.52805 15.4467 7.75872 15.6761L10.3214 18.2401C10.5507 18.4694 10.8774 18.5788 11.1721 18.5294C17.3987 17.4508 20.628 13.7934 22.292 9.92676ZM15.0001 8.00008C13.3427 8.00008 12.0001 9.34275 12.0001 11.0001C12.0001 12.6574 13.3427 14.0001 15.0001 14.0001C16.6574 14.0001 18.0001 12.6574 18.0001 11.0001C18.0001 9.34275 16.6574 8.00008 15.0001 8.00008Z" fill="url(#paint0_linear_0_3779)"/>
<defs>
<linearGradient id="paint0_linear_0_3779" x1="0.33374" y1="20.4241" x2="10.4641" y2="20.4241" gradientUnits="userSpaceOnUse">
<stop stop-color="#0CD890"/>
<stop offset="1" stop-color="#01F0FD"/>
</linearGradient>
</defs>
</svg>
